#N struct 1102-point float x0 float y0 float s;
#N struct 1103-point float x0 float y0 float s;
#N struct 1104-point float x0 float y0 float s;
#N struct 1105-point float x0 float y0 float s;
#N struct 1106-point float x0 float y0 float s;
#N struct 1107-point float x0 float y0 float s;
#N struct 1108-point float x0 float y0 float s;
#N struct 1109-point float x0 float y0 float s;
#N canvas 530 50 497 312 12;
#X declare -path ./lib -path ../rec -path ../txt -lib fd_lib;
#N canvas 590 149 507 304 dac 0;
#X obj 17 51 catch~ mono;
#X obj 17 103 env~;
#X obj 17 129 - 101;
#X obj 17 155 s vu;
#X obj 17 77 clone -s 1 fd_dacout_rec 2 vol;
#X obj 20 20 declare -path ./lib -path ../rec -path ../txt -lib fd_lib
;
#X obj 291 70 loadbang;
#X msg 291 96 \; pd-controls vis 1;
#X obj 180 171 catch~ rec-1;
#X obj 257 205 catch~ rec-2;
#X obj 182 232 writesf~ 2;
#X obj 112 174 r rec;
#X connect 0 0 4 0;
#X connect 1 0 2 0;
#X connect 2 0 3 0;
#X connect 4 0 1 0;
#X connect 6 0 7 0;
#X connect 8 0 10 0;
#X connect 9 0 10 1;
#X connect 11 0 10 0;
#X restore 23 142 pd dac;
#N canvas 117 63 1163 538 impulse-m-multiple 0;
#X obj 575 468 clone _impulse 20;
#X obj 49 15 r impulse-m;
#X obj 404 32 r impulse-vib-m;
#X obj 726 17 r impulse-mod-m;
#X obj 1010 18 r impulse-switch-m;
#X obj 131 105 unpack;
#X obj 260 202 + 40;
#X obj 260 173 * 70;
#X obj 260 144 / 127;
#X obj 114 136 dbtorms;
#X obj 114 166 * 10;
#X obj 76 235 crand;
#X obj 189 288 crand;
#X obj 90 60 t b a;
#X obj 50 320 pack f f f;
#X obj 452 125 unpack;
#X obj 581 164 / 127;
#X obj 417 295 crand;
#X obj 542 309 crand;
#X obj 411 80 t b a;
#X obj 371 340 pack f f f;
#X obj 581 193 * 6;
#X obj 435 156 / 127;
#X obj 435 186 * 30;
#X obj 76 258 * -1;
#X obj 797 145 unpack;
#X obj 926 184 / 127;
#X obj 746 309 crand;
#X obj 807 314 crand;
#X obj 756 100 t b a;
#X obj 716 360 pack f f f;
#X obj 780 176 / 127;
#X msg 1077 287 all \$1;
#X obj 780 206 * 500;
#X obj 926 213 * 3000;
#X msg 114 195 set 0 \$1;
#X msg 260 228 set 38 \$1;
#X obj 31 170 t f b b;
#X obj 365 230 t f b b;
#X msg 435 213 set 0 \$1;
#X msg 581 248 set 5 \$1;
#X obj 709 248 t f b b;
#X msg 780 233 set 0 \$1;
#X msg 926 268 set 0 \$1;
#X obj 31 100 delit 19 100;
#X obj 359 120 delit 19 100;
#X obj 702 136 delit 19 100;
#X connect 1 0 13 0;
#X connect 2 0 19 0;
#X connect 3 0 29 0;
#X connect 4 0 32 0;
#X connect 5 0 9 0;
#X connect 5 1 8 0;
#X connect 6 0 36 0;
#X connect 7 0 6 0;
#X connect 8 0 7 0;
#X connect 9 0 10 0;
#X connect 10 0 35 0;
#X connect 11 0 24 0;
#X connect 12 0 14 2;
#X connect 13 0 44 0;
#X connect 13 1 5 0;
#X connect 14 0 0 0;
#X connect 15 0 22 0;
#X connect 15 1 16 0;
#X connect 16 0 21 0;
#X connect 17 0 20 1;
#X connect 18 0 20 2;
#X connect 19 0 45 0;
#X connect 19 1 15 0;
#X connect 20 0 0 1;
#X connect 21 0 40 0;
#X connect 22 0 23 0;
#X connect 23 0 39 0;
#X connect 24 0 14 1;
#X connect 25 0 31 0;
#X connect 25 1 26 0;
#X connect 26 0 34 0;
#X connect 27 0 30 1;
#X connect 28 0 30 2;
#X connect 29 0 46 0;
#X connect 29 1 25 0;
#X connect 30 0 0 2;
#X connect 31 0 33 0;
#X connect 32 0 0 3;
#X connect 33 0 42 0;
#X connect 34 0 43 0;
#X connect 35 0 11 0;
#X connect 36 0 12 0;
#X connect 37 0 14 0;
#X connect 37 1 11 0;
#X connect 37 2 12 0;
#X connect 38 0 20 0;
#X connect 38 1 17 0;
#X connect 38 2 18 0;
#X connect 39 0 17 0;
#X connect 40 0 18 0;
#X connect 41 0 30 0;
#X connect 41 1 27 0;
#X connect 41 2 28 0;
#X connect 42 0 27 0;
#X connect 43 0 28 0;
#X connect 44 0 37 0;
#X connect 45 0 38 0;
#X connect 46 0 41 0;
#X restore 23 194 pd impulse-m-multiple;
#N canvas 94 99 1035 594 impulse-mono-single 0;
#X obj 155 76 r impulse-mod;
#X obj 109 48 r impulse-vib;
#X obj 49 15 r impulse;
#X obj 853 27 r impulse-switch;
#X obj 106 175 _impulse-mono;
#X obj 542 425 rev3~ 100 80 3000 25;
#X obj 526 517 throw~ dacout-1;
#X obj 640 515 throw~ dacout-2;
#X obj 254 296 r reverb-amount;
#X obj 253 322 / 127;
#X obj 563 264 / 127;
#X obj 556 290 * 100;
#X obj 618 313 / 127;
#X obj 241 415 *~;
#X obj 118 431 *~;
#X obj 145 375 sig~ 1;
#X obj 145 401 -~;
#X obj 252 349 pack f 10;
#X obj 252 375 line~;
#X obj 44 507 throw~ mono;
#X obj 564 238 r reverb-volume;
#X obj 619 287 r reverb-feedback;
#X obj 611 339 * 99;
#X obj 675 321 r reverb-cutoff;
#X obj 674 347 mtof;
#X obj 752 353 r reverb-cutoff-amt;
#X obj 752 379 / 127;
#X obj 752 405 * 100;
#X obj 856 59 t f f;
#X obj 44 474 *~;
#X obj 521 475 *~;
#X obj 642 468 *~;
#X obj 913 453 fd_switch;
#X obj 934 501 switch~;
#X text 375 296 (aka wet/dry);
#X text 559 209 Reverb stuff:;
#X text 206 176 <-- fine tune ranges here (and save the abstraction
afterwards for next time), f 24;
#X connect 0 0 4 2;
#X connect 1 0 4 1;
#X connect 2 0 4 0;
#X connect 3 0 28 0;
#X connect 4 0 13 0;
#X connect 4 0 14 0;
#X connect 5 0 30 0;
#X connect 5 1 31 0;
#X connect 8 0 9 0;
#X connect 9 0 17 0;
#X connect 10 0 11 0;
#X connect 11 0 5 2;
#X connect 12 0 22 0;
#X connect 13 0 5 0;
#X connect 14 0 29 0;
#X connect 15 0 16 0;
#X connect 16 0 14 1;
#X connect 17 0 18 0;
#X connect 18 0 16 1;
#X connect 18 0 13 1;
#X connect 20 0 10 0;
#X connect 21 0 12 0;
#X connect 22 0 5 3;
#X connect 23 0 24 0;
#X connect 24 0 5 4;
#X connect 25 0 26 0;
#X connect 26 0 27 0;
#X connect 27 0 5 5;
#X connect 28 0 4 3;
#X connect 28 1 32 0;
#X connect 29 0 19 0;
#X connect 30 0 6 0;
#X connect 31 0 7 0;
#X connect 32 0 29 1;
#X connect 32 0 30 1;
#X connect 32 0 31 1;
#X connect 32 1 33 0;
#X restore 23 168 pd impulse-mono-single;
#N canvas 401 216 506 422 recording 0;
#X obj 41 32 r start-rec;
#X obj 38 149 savepanel;
#X obj 39 178 makefilename %s.wav;
#X msg 39 230 \; fd_stopwatch still \, start \; rec open \$1 \, start
;
#X obj 215 58 r stop-rec;
#X msg 359 96 1;
#X obj 215 84 spigot;
#X obj 41 72 spigot 1;
#X obj 39 204 t a a b b;
#X msg 122 124 0;
#X msg 275 109 0;
#X obj 215 110 t b b b;
#X msg 133 68 1;
#X obj 313 355 print RECORDING;
#X msg 233 139 stopped recording \; fd_stopwatch still;
#X msg 313 247 \; rec stop;
#X connect 0 0 7 0;
#X connect 1 0 2 0;
#X connect 2 0 8 0;
#X connect 4 0 6 0;
#X connect 5 0 6 1;
#X connect 6 0 11 0;
#X connect 7 0 1 0;
#X connect 8 0 3 0;
#X connect 8 1 13 0;
#X connect 8 2 5 0;
#X connect 8 3 9 0;
#X connect 9 0 7 1;
#X connect 10 0 6 1;
#X connect 11 0 12 0;
#X connect 11 0 14 0;
#X connect 11 1 15 0;
#X connect 11 2 10 0;
#X connect 12 0 7 1;
#X connect 14 0 13 0;
#X restore 23 220 pd recording;
#X obj 23 246 cnv 15 100 30 empty empty empty 20 12 0 14 -204786 -66577
0;
#N canvas 42 239 1169 467 controls 0;
#X obj 909 383 bng 15 250 50 0 start-rec start-rec-set START-REC 17
7 0 10 -258113 -1 -1;
#X obj 1009 40 fd_stopwatch;
#X obj 909 402 bng 15 250 50 0 stop-rec stop-rec-set STOP-REC 17 7
0 10 -257985 -1 -1;
#X obj 908 119 tgl 15 0 empty empty empty 17 7 0 10 -4034 -1 -1 0 1
;
#X msg 908 139 \; pd dsp \$1;
#X obj 909 201 vsl 30 128 0 100 0 0 vol vol-set vol 0 -9 0 10 -204786
-1 -1 0 1;
#X obj 948 208 vu 15 120 vu vu -1 -8 0 10 -66577 -1 1 0;
#X text 1016 14 (stopwatch);
#X text 101 12 A solo FM instrument (with reverb);
#X text 507 11 Multiple FM instruments (with stereo panning);
#X text 987 350 Recording:;
#X text 993 112 <-- 1) turn on;
#X text 987 378 <-- 3) start recording;
#X text 986 399 <-- 4) stop recording;
#X text 993 241 <-- 2) volume up;
#X obj 28 286 else/slider2d;
#X obj 28 421 s impulse;
#X obj 168 286 else/slider2d;
#X obj 308 286 else/slider2d;
#X obj 168 421 s impulse-mod;
#X obj 308 421 s impulse-vib;
#X obj 30 82 else/slider2d;
#X obj 28 240 r impulse-set;
#X obj 168 240 r impulse-mod-set;
#X obj 308 240 r impulse-vib-set;
#X text 59 56 global;
#X obj 177 76 vsl 15 128 0 127 0 0 impulse-vol impulse-vol-set impulse-vol
0 -9 0 10 -204786 -1 -1 0 1;
#X obj 32 40 tgl 15 0 impulse-switch impulse-switch-set impulse-switch
17 7 0 10 -204786 -1 -1 0 1;
#X text 38 261 tempo - pitch;
#X text 164 261 mod freq - index;
#X text 307 261 vib speed - width;
#X obj 203 84 vu 15 120 impulse-vu vu-meter -1 -8 0 10 -66577 -1 1
0;
#X obj 285 169 hsl 128 15 0 127 0 1 reverb-cutoff reverb-cutoff-set
reverb-cutoff 10 8 0 10 -262144 -1 -1 11800 1;
#X obj 285 131 hsl 128 15 0 127 0 1 reverb-volume reverb-volume-set
reverb-volume 10 8 0 10 -262144 -1 -1 12700 1;
#X obj 285 150 hsl 128 15 0 127 0 1 reverb-feedback reverb-feedback-set
reverb-feedback 10 8 0 10 -262144 -1 -1 12700 1;
#X obj 285 113 hsl 128 15 0 127 0 0 reverb-amount reverb-amount-set
reverb-amount 10 8 0 10 -262144 -1 -1 0 1;
#X obj 285 187 hsl 128 15 0 127 0 1 reverb-cutoff-amt reverb-cutoff-amt-set
reverb-cutoff-amt 10 8 0 10 -262144 -1 -1 7000 1;
#X floatatom 377 86 5 0 0 0 - reverb-amount -;
#X text 281 87 reverb;
#X obj 450 288 else/slider2d;
#X obj 590 288 else/slider2d;
#X obj 739 288 else/slider2d;
#X obj 456 77 else/slider2d;
#X text 481 57 global;
#X text 452 261 tempo - pitch;
#X text 586 261 mod freq - index;
#X text 751 261 vib speed - width;
#X obj 629 89 vu 15 120 impulse-vu-m-l vu-meter -1 -8 0 10 -66577 -1
0 0;
#X obj 450 240 r impulse-m-set;
#X obj 590 240 r impulse-mod-m-set;
#X obj 739 240 r impulse-vib-m-set;
#X obj 450 421 s impulse-m;
#X obj 590 421 s impulse-mod-m;
#X obj 739 421 s impulse-vib-m;
#X obj 605 77 vsl 15 128 0 127 0 0 impulse-vol-m impulse-vol-m-set
impulse-vol-m 0 -9 0 10 -204786 -1 -1 0 1;
#X obj 458 43 tgl 15 0 impulse-switch-m impulse-switch-m-set impulse-switch-m
17 7 0 10 -204786 -1 -1 0 1;
#X obj 649 89 vu 15 120 impulse-vu-m-r empty -1 -8 0 10 -66577 -1 1
0;
#N canvas 0 22 450 300 global 0;
#X msg 114 122 \; impulse-m-set \$1 \$2 \; impulse-mod-m-set \$1 \$2
\; impulse-vib-m-set \$1 \$2 \;;
#X obj 131 70 inlet;
#X connect 1 0 0 0;
#X restore 456 213 pd global;
#N canvas 0 22 450 300 global 0;
#X obj 37 37 inlet;
#X msg 58 128 \; impulse-set \$1 \$2 \; impulse-mod-set \$1 \$2 \;
impulse-vib-set \$1 \$2 \;;
#X connect 0 0 1 0;
#X restore 30 214 pd global;
#X connect 3 0 4 0;
#X connect 15 0 16 0;
#X connect 17 0 19 0;
#X connect 18 0 20 0;
#X connect 21 0 58 0;
#X connect 22 0 15 0;
#X connect 23 0 17 0;
#X connect 24 0 18 0;
#X connect 39 0 51 0;
#X connect 40 0 52 0;
#X connect 41 0 53 0;
#X connect 42 0 57 0;
#X connect 48 0 39 0;
#X connect 49 0 40 0;
#X connect 50 0 41 0;
#X restore 26 249 pd controls;
#X text 127 247 <-- click to open controls;
#X text 33 25 An fm instrument for mouse interaction and stereo recording
;
#X text 179 194 <-- open this to fine tune the ranges...;
#X text 92 68 IMPORTANT NOTE: you need 'fd_lib' and 'else' libraries
from Help>Find Externals. After install \, reopen Pd. You should not
have any red errors on the Pd console., f 44;
